<?xml version="1.0" encoding="UTF-8" standalone="no"?>
<!DOCTYPE svg PUBLIC "-//W3C//DTD SVG 1.1//EN" "http://www.w3.org/Graphics/SVG/1.1/DTD/svg11.dtd">
<svg width="100%" height="100%" viewBox="0 0 509 509" version="1.1" xmlns="http://www.w3.org/2000/svg" xmlns:xlink="http://www.w3.org/1999/xlink" xml:space="preserve" style="fill-rule:evenodd;clip-rule:evenodd;stroke-linejoin:round;stroke-miterlimit:1.41421;">
    <path d="M413.172,0L95.347,0C42.684,0 0,42.684 0,95.347L0,413.172C0,465.836 42.684,508.519 95.347,508.519L413.172,508.519C465.836,508.519 508.519,465.835 508.519,413.172L508.519,95.347C508.52,42.684 465.836,0 413.172,0ZM190.695,377.417L127.13,377.417L127.13,154.94L190.695,154.94L190.695,377.417ZM160.883,141.305C144.42,141.305 131.103,127.956 131.103,111.493C131.103,95.03 144.452,81.681 160.883,81.681C177.346,81.713 190.695,95.061 190.695,111.493C190.695,127.956 177.346,141.305 160.883,141.305ZM413.172,377.417L349.607,377.417L349.607,239.862C349.607,223.748 344.999,212.466 325.198,212.466C292.367,212.466 286.042,239.862 286.042,239.862L286.042,377.417L222.477,377.417L222.477,154.94L286.042,154.94L286.042,176.202C295.132,169.242 317.824,154.971 349.607,154.971C370.202,154.971 413.172,167.303 413.172,241.801L413.172,377.417Z" style="fill:white;fill-rule:nonzero;"/>
</svg>
