<?xml version="1.0" encoding="UTF-8" standalone="no"?>
<!DOCTYPE svg PUBLIC "-//W3C//DTD SVG 1.1//EN" "http://www.w3.org/Graphics/SVG/1.1/DTD/svg11.dtd">
<svg width="100%" height="100%" viewBox="0 0 203 222" version="1.1" xmlns="http://www.w3.org/2000/svg" xmlns:xlink="http://www.w3.org/1999/xlink" xml:space="preserve" style="fill-rule:evenodd;clip-rule:evenodd;stroke-linejoin:round;stroke-miterlimit:1.41421;">
    <g transform="matrix(1,0,0,1,-8.784,0)">
        <path d="M53.424,48.384C53.52,51.936 53.568,57.12 53.568,63.936C53.568,71.04 53.52,76.368 53.424,79.92C53.136,86.448 51.24,91.752 47.736,95.832C44.232,99.912 39.648,101.952 33.984,101.952C31.008,101.952 28.296,101.352 25.848,100.152C23.4,98.952 21.36,97.2 19.728,94.896C19.536,94.704 19.368,94.656 19.224,94.752C19.08,94.848 19.008,94.992 19.008,95.184L19.008,99.36C19.008,100.32 18.528,100.8 17.568,100.8L10.224,100.8C9.264,100.8 8.784,100.32 8.784,99.36L8.784,1.44C8.784,0.48 9.264,0 10.224,0L17.568,0C18.528,0 19.008,0.48 19.008,1.44L19.008,33.408C19.008,33.6 19.08,33.744 19.224,33.84C19.368,33.936 19.536,33.888 19.728,33.696C22.992,29.088 27.744,26.784 33.984,26.784C39.744,26.784 44.376,28.776 47.88,32.76C51.384,36.744 53.232,41.952 53.424,48.384ZM30.96,93.024C34.704,93.024 37.728,91.68 40.032,88.992C42.336,86.304 43.44,82.848 43.344,78.624L43.344,64.368L43.344,55.152L43.344,50.112C43.44,45.792 42.336,42.312 40.032,39.672C37.728,37.032 34.704,35.712 30.96,35.712C27.504,35.712 24.648,37.032 22.392,39.672C20.136,42.312 19.008,45.792 19.008,50.112L19.008,78.624C19.008,82.944 20.136,86.424 22.392,89.064C24.648,91.704 27.504,93.024 30.96,93.024Z" style="fill:white;fill-rule:nonzero;"/>
    </g>
    <g transform="matrix(1,0,0,1,-10.8693,0)">
        <path d="M113.184,66.816C113.184,67.776 112.704,68.256 111.744,68.256L78.912,68.256C78.528,68.256 78.336,68.448 78.336,68.832L78.336,79.344C78.336,83.376 79.464,86.664 81.72,89.208C83.976,91.752 86.928,93.024 90.576,93.024C93.648,93.024 96.264,92.088 98.424,90.216C100.584,88.344 102,85.92 102.672,82.944C102.96,82.08 103.488,81.648 104.256,81.648L111.456,81.936C111.84,81.936 112.176,82.08 112.464,82.368C112.752,82.656 112.848,83.04 112.752,83.52C111.984,89.184 109.656,93.672 105.768,96.984C101.88,100.296 96.816,101.952 90.576,101.952C83.76,101.952 78.312,99.936 74.232,95.904C70.152,91.872 68.112,86.544 68.112,79.92L68.112,48.816C68.112,42.288 70.152,36.984 74.232,32.904C78.312,28.824 83.76,26.784 90.576,26.784C97.488,26.784 102.984,28.824 107.064,32.904C111.144,36.984 113.184,42.288 113.184,48.816L113.184,66.816ZM90.576,35.712C86.928,35.712 83.976,36.984 81.72,39.528C79.464,42.072 78.336,45.408 78.336,49.536L78.336,59.184C78.336,59.568 78.528,59.76 78.912,59.76L102.528,59.76C102.912,59.76 103.104,59.568 103.104,59.184L103.104,49.536C103.104,45.408 101.952,42.072 99.648,39.528C97.344,36.984 94.32,35.712 90.576,35.712Z" style="fill:white;fill-rule:nonzero;"/>
    </g>
    <g transform="matrix(1,0,0,1,-8.34667,1.184)">
        <path d="M153.36,34.128C153.36,35.088 152.88,35.568 151.92,35.568L140.976,35.568C140.592,35.568 140.4,35.76 140.4,36.144L140.4,80.208C140.4,84.624 141.168,87.672 142.704,89.352C144.24,91.032 146.592,91.824 149.76,91.728L151.2,91.728C152.16,91.728 152.64,92.208 152.64,93.168L152.64,99.36C152.64,100.32 152.16,100.8 151.2,100.8L147.6,100.8C141.936,100.8 137.64,99.576 134.712,97.128C131.784,94.68 130.32,90.048 130.32,83.232L130.32,36.144C130.32,35.76 130.128,35.568 129.744,35.568L124.128,35.568C123.168,35.568 122.688,35.088 122.688,34.128L122.688,29.376C122.688,28.416 123.168,27.936 124.128,27.936L129.744,27.936C130.128,27.936 130.32,27.744 130.32,27.36L130.32,11.232C130.32,10.272 130.8,9.792 131.76,9.792L138.96,9.792C139.92,9.792 140.4,10.272 140.4,11.232L140.4,27.36C140.4,27.744 140.592,27.936 140.976,27.936L151.92,27.936C152.88,27.936 153.36,28.416 153.36,29.376L153.36,34.128Z" style="fill:white;fill-rule:nonzero;"/>
    </g>
    <g transform="matrix(1,0,0,1,-6.768,0.032)">
        <path d="M187.344,26.784C194.064,26.784 199.416,28.968 203.4,33.336C207.384,37.704 209.376,43.536 209.376,50.832L209.376,99.36C209.376,100.32 208.896,100.8 207.936,100.8L200.592,100.8C199.632,100.8 199.152,100.32 199.152,99.36L199.152,95.184C199.152,94.992 199.08,94.872 198.936,94.824C198.792,94.776 198.624,94.848 198.432,95.04C194.88,99.648 189.6,101.952 182.592,101.952C177.312,101.952 172.728,100.44 168.84,97.416C164.952,94.392 163.008,89.04 163.008,81.36C163.008,73.2 165.36,67.224 170.064,63.432C174.768,59.64 180.96,57.744 188.64,57.744L198.576,57.744C198.96,57.744 199.152,57.552 199.152,57.168L199.152,51.552C199.152,46.752 198.072,42.912 195.912,40.032C193.752,37.152 190.8,35.712 187.056,35.712C184.176,35.712 181.68,36.672 179.568,38.592C177.456,40.512 176.256,42.96 175.968,45.936C175.872,46.896 175.344,47.376 174.384,47.376L166.464,47.232C165.984,47.232 165.624,47.088 165.384,46.8C165.144,46.512 165.072,46.176 165.168,45.792C165.648,40.128 167.952,35.544 172.08,32.04C176.208,28.536 181.296,26.784 187.344,26.784ZM184.752,93.024C188.688,93.024 192.072,91.752 194.904,89.208C197.736,86.664 199.152,83.136 199.152,78.624L199.152,66.528C199.152,66.144 198.96,65.952 198.576,65.952L188.496,65.952C183.888,65.952 180.24,67.176 177.552,69.624C174.864,72.072 173.52,75.696 173.52,80.496C173.52,84.72 174.552,87.864 176.616,89.928C178.68,91.992 181.392,93.024 184.752,93.024Z" style="fill:white;fill-rule:nonzero;"/>
    </g>
    <g transform="matrix(1,0,0,1,-223.776,92.04)">
        <path d="M246.24,101.952C239.424,101.952 233.976,99.936 229.896,95.904C225.816,91.872 223.776,86.544 223.776,79.92L223.776,48.816C223.776,42.288 225.84,36.984 229.968,32.904C234.096,28.824 239.52,26.784 246.24,26.784C250.752,26.784 254.736,27.696 258.192,29.52C261.648,31.344 264.312,33.768 266.184,36.792C268.056,39.816 268.992,43.152 268.992,46.8L268.992,48.24C268.992,49.2 268.512,49.68 267.552,49.68L260.208,49.968C259.824,49.968 259.488,49.848 259.2,49.608C258.912,49.368 258.768,49.056 258.768,48.672L258.768,47.52C258.768,44.352 257.592,41.592 255.24,39.24C252.888,36.888 249.888,35.712 246.24,35.712C242.592,35.712 239.64,36.984 237.384,39.528C235.128,42.072 234,45.408 234,49.536L234,79.2C234,83.328 235.128,86.664 237.384,89.208C239.64,91.752 242.592,93.024 246.24,93.024C249.888,93.024 252.888,91.848 255.24,89.496C257.592,87.144 258.768,84.384 258.768,81.216L258.768,80.208C258.768,79.248 259.248,78.768 260.208,78.768L267.552,78.912C268.512,78.912 268.992,79.392 268.992,80.352L268.992,81.936C268.992,87.696 266.904,92.472 262.728,96.264C258.552,100.056 253.056,101.952 246.24,101.952Z" style="fill:white;fill-rule:nonzero;"/>
    </g>
    <g transform="matrix(1,0,0,1,-228.523,91.608)">
        <path d="M367.488,27.216C369.888,27.216 371.952,27.744 373.68,28.8C374.352,29.184 374.592,29.808 374.4,30.672L372.816,38.016C372.72,38.88 372.096,39.168 370.944,38.88C369.792,38.4 368.496,38.16 367.056,38.16C366.096,38.16 365.376,38.208 364.896,38.304C361.44,38.496 358.608,40.296 356.4,43.704C354.192,47.112 353.088,51.264 353.088,56.16L353.088,99.36C353.088,100.32 352.608,100.8 351.648,100.8L344.304,100.8C343.344,100.8 342.864,100.32 342.864,99.36L342.864,29.376C342.864,28.416 343.344,27.936 344.304,27.936L351.648,27.936C352.608,27.936 353.088,28.416 353.088,29.376L353.088,38.016C353.088,38.304 353.16,38.448 353.304,38.448C353.448,38.448 353.616,38.352 353.808,38.16C356.592,30.864 361.152,27.216 367.488,27.216Z" style="fill:white;fill-rule:nonzero;"/>
    </g>
    <g transform="matrix(1,0,0,1,-228.096,92.352)">
        <path d="M430.56,48.816C430.656,52.368 430.704,57.696 430.704,64.8C430.704,71.616 430.656,76.8 430.56,80.352C430.368,86.784 428.52,91.992 425.016,95.976C421.512,99.96 416.88,101.952 411.12,101.952C404.976,101.952 400.224,99.648 396.864,95.04C396.672,94.848 396.504,94.8 396.36,94.896C396.216,94.992 396.144,95.136 396.144,95.328L396.144,127.296C396.144,128.256 395.664,128.736 394.704,128.736L387.36,128.736C386.4,128.736 385.92,128.256 385.92,127.296L385.92,29.376C385.92,28.416 386.4,27.936 387.36,27.936L394.704,27.936C395.664,27.936 396.144,28.416 396.144,29.376L396.144,33.552C396.144,33.744 396.216,33.888 396.36,33.984C396.504,34.08 396.672,34.032 396.864,33.84C398.496,31.536 400.536,29.784 402.984,28.584C405.432,27.384 408.144,26.784 411.12,26.784C416.784,26.784 421.368,28.824 424.872,32.904C428.376,36.984 430.272,42.288 430.56,48.816ZM408.096,93.024C411.84,93.024 414.864,91.704 417.168,89.064C419.472,86.424 420.576,82.944 420.48,78.624L420.48,73.584L420.48,64.368L420.48,50.112C420.576,45.888 419.472,42.432 417.168,39.744C414.864,37.056 411.84,35.712 408.096,35.712C404.64,35.712 401.784,37.032 399.528,39.672C397.272,42.312 396.144,45.792 396.144,50.112L396.144,78.624C396.144,82.944 397.272,86.424 399.528,89.064C401.784,91.704 404.64,93.024 408.096,93.024Z" style="fill:white;fill-rule:nonzero;"/>
    </g>
    <g transform="matrix(-1.83697e-16,1,-1,-1.83697e-16,128.736,-175.056)">
        <path d="M396.144,5.376L396.144,127.296C396.144,128.256 395.664,128.736 394.704,128.736L387.36,128.736C386.4,128.736 385.92,128.256 385.92,127.296L385.92,5.376C385.92,4.416 387.456,3.936 387.36,3.936L394.704,3.936C395.664,3.936 396.144,4.416 396.144,5.376Z" style="fill:white;fill-rule:nonzero;"/>
    </g>
    <g transform="matrix(1,0,0,1,-664.565,-307.445)">
        <path d="M767.024,469.3L767.024,479.12C767.024,485.744 764.96,491.072 760.832,495.104C757.583,498.277 753.473,500.202 748.5,500.877L748.5,491.56C750.311,490.941 751.901,489.891 753.272,488.408C755.624,485.864 756.8,482.576 756.8,478.544L756.8,469.3L767.024,469.3ZM731.888,469.3L731.888,478.544C731.888,482.576 733.04,485.864 735.344,488.408C736.546,489.736 737.932,490.717 739.5,491.351L739.5,500.797C734.781,500.057 730.876,498.16 727.784,495.104C723.704,491.072 721.664,485.744 721.664,479.12L721.664,469.3L731.888,469.3ZM748.5,426.269C753.398,426.959 757.485,428.904 760.76,432.104C764.936,436.184 767.024,441.488 767.024,448.016L767.024,456.7L756.8,456.7L756.8,448.736C756.8,444.608 755.624,441.272 753.272,438.728C751.901,437.245 750.311,436.195 748.5,435.576L748.5,426.269ZM739.5,426.352L739.5,435.785C737.932,436.419 736.546,437.4 735.344,438.728C733.04,441.272 731.888,444.608 731.888,448.736L731.888,456.7L721.664,456.7L721.664,448.016C721.664,441.488 723.728,436.184 727.856,432.104C730.972,429.025 734.853,427.107 739.5,426.352Z" style="fill:white;"/>
    </g>
</svg>
