<?xml version="1.0" encoding="UTF-8" standalone="no"?>
<!DOCTYPE svg PUBLIC "-//W3C//DTD SVG 1.1//EN" "http://www.w3.org/Graphics/SVG/1.1/DTD/svg11.dtd">
<svg width="100%" height="100%" viewBox="0 0 180 180" version="1.1" xmlns="http://www.w3.org/2000/svg" xmlns:xlink="http://www.w3.org/1999/xlink" xml:space="preserve" style="fill-rule:evenodd;clip-rule:evenodd;stroke-linejoin:round;stroke-miterlimit:1.41421;">
    <g transform="matrix(1,0,0,1,-160,-160)">
        <path d="M340,332C340,336.418 336.418,340 332,340C313.268,340 266.732,340 248,340C243.582,340 240,336.418 240,332C240,326.431 240,320 240,320L240,300C240,300 240,293.569 240,288C240,283.582 243.582,280 248,280C259.483,280 280.517,280 292,280C296.418,280 300,283.582 300,288C300,289.317 300,290.683 300,292C300,296.418 296.418,300 292,300C280.327,300 260,300 260,300L260,320L320,320L320,180L180,180L180,320L200,320L200,300C200,300 200,231.716 200,208C200,203.582 203.582,200 208,200C226.732,200 273.268,200 292,200C296.418,200 300,203.582 300,208C300,219.483 300,240.517 300,252C300,256.418 296.418,260 292,260C271.739,260 220,260 220,260L220,332C220,336.418 216.418,340 212,340C200.517,340 179.483,340 168,340C163.582,340 160,336.418 160,332C160,302.197 160,197.803 160,168C160,163.582 163.582,160 168,160C197.803,160 302.197,160 332,160C336.418,160 340,163.582 340,168C340,197.803 340,302.197 340,332ZM280,220L220,220L220,240L280,240L280,220Z" style="fill:rgb(40,40,40);"/>
    </g>
</svg>
