<?xml version="1.0" encoding="UTF-8" standalone="no"?>
<!DOCTYPE svg PUBLIC "-//W3C//DTD SVG 1.1//EN" "http://www.w3.org/Graphics/SVG/1.1/DTD/svg11.dtd">
<svg width="100%" height="100%" viewBox="0 0 718 218" version="1.1" xmlns="http://www.w3.org/2000/svg" xmlns:xlink="http://www.w3.org/1999/xlink" xml:space="preserve" style="fill-rule:evenodd;clip-rule:evenodd;stroke-linejoin:round;stroke-miterlimit:1.41421;">
    <g transform="matrix(1,0,0,1,-21.5,-20)">
        <g transform="matrix(2.74533,0,0,2.74533,-765.563,-401.43)">
            <path d="M368.953,201.77C365.834,201.77 363.338,200.968 361.462,199.363C359.587,197.759 358.649,195.624 358.649,192.958L358.649,192.483C358.649,192.032 358.875,191.806 359.327,191.806L362.581,191.806C363.033,191.806 363.259,191.986 363.259,192.348L363.259,192.89C363.259,194.336 363.79,195.556 364.852,196.55C365.914,197.545 367.303,198.042 369.02,198.042C370.647,198.042 371.958,197.545 372.952,196.55C373.946,195.556 374.443,194.291 374.443,192.755C374.443,191.58 374.127,190.597 373.494,189.806C372.861,189.015 372.127,188.394 371.291,187.942C370.455,187.49 369.201,186.903 367.529,186.18C365.767,185.457 364.309,184.745 363.157,184.044C362.005,183.344 361.011,182.35 360.175,181.062C359.339,179.774 358.921,178.136 358.921,176.148C358.921,173.256 359.813,170.973 361.598,169.302C363.383,167.63 365.789,166.794 368.817,166.794C371.89,166.794 374.33,167.652 376.138,169.369C377.945,171.086 378.849,173.369 378.849,176.215L378.849,176.419C378.849,176.871 378.623,177.097 378.171,177.097L375.053,177.097C374.601,177.097 374.375,176.916 374.375,176.554L374.375,176.012C374.375,174.476 373.867,173.21 372.85,172.216C371.833,171.222 370.512,170.725 368.885,170.725C367.258,170.725 365.959,171.233 364.987,172.25C364.016,173.267 363.53,174.521 363.53,176.012C363.53,177.097 363.824,178.012 364.411,178.757C364.998,179.503 365.722,180.113 366.58,180.587C367.439,181.062 368.636,181.638 370.173,182.316C372.025,183.129 373.55,183.898 374.748,184.621C375.945,185.344 376.996,186.36 377.9,187.671C378.804,188.981 379.256,190.608 379.256,192.551C379.256,195.353 378.329,197.59 376.476,199.262C374.624,200.934 372.116,201.77 368.953,201.77Z" style="fill:rgb(40,40,40);fill-rule:nonzero;"/>
            <path d="M402.437,185.434C402.437,185.886 402.212,186.112 401.76,186.112L386.305,186.112C386.124,186.112 386.034,186.202 386.034,186.383L386.034,191.331C386.034,193.229 386.565,194.777 387.627,195.974C388.689,197.172 390.078,197.77 391.795,197.77C393.242,197.77 394.473,197.33 395.49,196.449C396.506,195.568 397.173,194.427 397.489,193.026C397.625,192.619 397.873,192.416 398.235,192.416L401.624,192.551C401.805,192.551 401.963,192.619 402.099,192.755C402.234,192.89 402.279,193.071 402.234,193.297C401.873,195.963 400.777,198.076 398.947,199.635C397.116,201.194 394.733,201.973 391.795,201.973C388.587,201.973 386.023,201.024 384.102,199.126C382.182,197.228 381.221,194.72 381.221,191.602L381.221,176.961C381.221,173.888 382.182,171.391 384.102,169.471C386.023,167.55 388.587,166.59 391.795,166.59C395.049,166.59 397.636,167.55 399.557,169.471C401.477,171.391 402.437,173.888 402.437,176.961L402.437,185.434ZM391.795,170.793C390.078,170.793 388.689,171.391 387.627,172.589C386.565,173.787 386.034,175.357 386.034,177.3L386.034,181.841C386.034,182.022 386.124,182.113 386.305,182.113L397.422,182.113C397.602,182.113 397.693,182.022 397.693,181.841L397.693,177.3C397.693,175.357 397.15,173.787 396.066,172.589C394.981,171.391 393.558,170.793 391.795,170.793Z" style="fill:rgb(40,40,40);fill-rule:nonzero;"/>
            <path d="M415.994,201.973C412.786,201.973 410.221,201.024 408.301,199.126C406.38,197.228 405.42,194.72 405.42,191.602L405.42,176.961C405.42,173.888 406.391,171.391 408.335,169.471C410.278,167.55 412.831,166.59 415.994,166.59C418.118,166.59 419.993,167.019 421.62,167.878C423.247,168.737 424.501,169.878 425.382,171.301C426.263,172.725 426.704,174.295 426.704,176.012L426.704,176.69C426.704,177.142 426.478,177.368 426.026,177.368L422.569,177.503C422.388,177.503 422.23,177.447 422.095,177.334C421.959,177.221 421.891,177.074 421.891,176.893L421.891,176.351C421.891,174.86 421.338,173.561 420.231,172.453C419.123,171.346 417.711,170.793 415.994,170.793C414.277,170.793 412.887,171.391 411.825,172.589C410.764,173.787 410.233,175.357 410.233,177.3L410.233,191.263C410.233,193.206 410.764,194.777 411.825,195.974C412.887,197.172 414.277,197.77 415.994,197.77C417.711,197.77 419.123,197.217 420.231,196.11C421.338,195.003 421.891,193.703 421.891,192.212L421.891,191.738C421.891,191.286 422.117,191.06 422.569,191.06L426.026,191.128C426.478,191.128 426.704,191.354 426.704,191.806L426.704,192.551C426.704,195.263 425.721,197.511 423.755,199.296C421.79,201.081 419.203,201.973 415.994,201.973Z" style="fill:rgb(40,40,40);fill-rule:nonzero;"/>
            <path d="M445.683,167.81C445.683,167.358 445.909,167.132 446.361,167.132L449.818,167.132C450.27,167.132 450.496,167.358 450.496,167.81L450.496,200.753C450.496,201.205 450.27,201.431 449.818,201.431L446.361,201.431C445.909,201.431 445.683,201.205 445.683,200.753L445.683,198.448C445.683,198.313 445.649,198.245 445.582,198.245C445.514,198.245 445.435,198.29 445.344,198.381C443.943,200.73 441.684,201.905 438.566,201.905C435.855,201.905 433.697,201.081 432.093,199.431C430.488,197.782 429.686,195.285 429.686,191.941L429.686,167.81C429.686,167.358 429.912,167.132 430.364,167.132L433.821,167.132C434.273,167.132 434.499,167.358 434.499,167.81L434.499,190.857C434.499,193.116 434.962,194.822 435.889,195.974C436.815,197.127 438.159,197.703 439.922,197.703C441.729,197.703 443.141,197.047 444.158,195.737C445.175,194.427 445.683,192.642 445.683,190.382L445.683,167.81Z" style="fill:rgb(40,40,40);fill-rule:nonzero;"/>
            <path d="M466.289,157.643C464.572,157.643 463.352,158.219 462.629,159.371C461.906,160.524 461.544,162.32 461.544,164.76L461.544,166.861C461.544,167.042 461.635,167.132 461.816,167.132L467.035,167.132C467.487,167.132 467.713,167.358 467.713,167.81L467.713,170.047C467.713,170.499 467.487,170.725 467.035,170.725L461.816,170.725C461.635,170.725 461.544,170.815 461.544,170.996L461.544,200.753C461.544,201.205 461.319,201.431 460.867,201.431L457.477,201.431C457.026,201.431 456.8,201.205 456.8,200.753L456.8,170.996C456.8,170.815 456.709,170.725 456.529,170.725L453.817,170.725C453.365,170.725 453.139,170.499 453.139,170.047L453.139,167.81C453.139,167.358 453.365,167.132 453.817,167.132L456.529,167.132C456.709,167.132 456.8,167.042 456.8,166.861L456.8,164.692C456.8,160.761 457.523,157.914 458.969,156.152C460.415,154.389 462.832,153.508 466.222,153.508L467.17,153.508C467.622,153.508 467.848,153.734 467.848,154.186L467.781,156.965C467.781,157.417 467.555,157.643 467.103,157.643L466.289,157.643Z" style="fill:rgb(40,40,40);fill-rule:nonzero;"/>
            <path d="M480.592,201.973C477.338,201.973 474.751,201.024 472.83,199.126C470.91,197.228 469.95,194.72 469.95,191.602L469.95,176.961C469.95,173.888 470.921,171.391 472.864,169.471C474.807,167.55 477.383,166.59 480.592,166.59C483.8,166.59 486.387,167.55 488.353,169.471C490.318,171.391 491.301,173.888 491.301,176.961L491.301,191.602C491.301,194.72 490.33,197.228 488.387,199.126C486.444,201.024 483.845,201.973 480.592,201.973ZM480.592,197.77C482.309,197.77 483.721,197.172 484.828,195.974C485.935,194.777 486.489,193.229 486.489,191.331L486.489,177.3C486.489,175.357 485.935,173.787 484.828,172.589C483.721,171.391 482.309,170.793 480.592,170.793C478.874,170.793 477.474,171.391 476.389,172.589C475.304,173.787 474.762,175.357 474.762,177.3L474.762,191.331C474.762,193.229 475.304,194.777 476.389,195.974C477.474,197.172 478.874,197.77 480.592,197.77Z" style="fill:rgb(40,40,40);fill-rule:nonzero;"/>
            <path d="M506.959,166.794C508.089,166.794 509.061,167.042 509.874,167.539C510.19,167.72 510.303,168.014 510.213,168.42L509.467,171.877C509.422,172.284 509.128,172.42 508.586,172.284C508.044,172.058 507.434,171.945 506.756,171.945C506.304,171.945 505.965,171.968 505.739,172.013C504.112,172.103 502.779,172.951 501.74,174.555C500.701,176.159 500.181,178.113 500.181,180.418L500.181,200.753C500.181,201.205 499.955,201.431 499.503,201.431L496.046,201.431C495.594,201.431 495.368,201.205 495.368,200.753L495.368,167.81C495.368,167.358 495.594,167.132 496.046,167.132L499.503,167.132C499.955,167.132 500.181,167.358 500.181,167.81L500.181,171.877C500.181,172.013 500.215,172.081 500.283,172.081C500.35,172.081 500.429,172.035 500.52,171.945C501.83,168.511 503.977,166.794 506.959,166.794Z" style="fill:rgb(40,40,40);fill-rule:nonzero;"/>
            <path d="M539.292,166.658C542.003,166.658 544.105,167.652 545.596,169.64C547.087,171.629 547.833,174.385 547.833,177.91L547.833,200.753C547.833,201.205 547.607,201.431 547.155,201.431L543.766,201.431C543.314,201.431 543.088,201.205 543.088,200.753L543.088,178.317C543.088,176.012 542.602,174.193 541.63,172.86C540.659,171.527 539.382,170.861 537.801,170.861C536.083,170.861 534.728,171.516 533.734,172.826C532.74,174.137 532.242,175.922 532.242,178.181L532.242,200.753C532.242,201.205 532.016,201.431 531.565,201.431L528.108,201.431C527.656,201.431 527.43,201.205 527.43,200.753L527.43,178.317C527.43,176.012 526.944,174.193 525.972,172.86C525.001,171.527 523.747,170.861 522.211,170.861C520.493,170.861 519.126,171.516 518.11,172.826C517.093,174.137 516.585,175.922 516.585,178.181L516.585,200.753C516.585,201.205 516.359,201.431 515.907,201.431L512.518,201.431C512.066,201.431 511.84,201.205 511.84,200.753L511.84,167.81C511.84,167.358 512.066,167.132 512.518,167.132L515.907,167.132C516.359,167.132 516.585,167.358 516.585,167.81L516.585,169.912C516.585,170.002 516.618,170.058 516.686,170.081C516.754,170.104 516.833,170.07 516.923,169.979C517.782,168.85 518.799,168.014 519.974,167.471C521.149,166.929 522.391,166.658 523.702,166.658C525.419,166.658 526.91,167.076 528.175,167.912C529.441,168.748 530.412,169.934 531.09,171.471C531.135,171.561 531.203,171.606 531.293,171.606C531.384,171.606 531.452,171.538 531.497,171.403C532.31,169.776 533.417,168.578 534.818,167.81C536.219,167.042 537.71,166.658 539.292,166.658Z" style="fill:rgb(40,40,40);fill-rule:nonzero;"/>
        </g>
        <g transform="matrix(2.00721,0,0,2.00721,-572.163,-978.95)">
            <g transform="matrix(1,0,0,1,0,2)">
                <path d="M380.391,495.783C380.52,495.801 380.65,495.813 380.778,495.837C381.035,495.885 381.286,495.957 381.53,496.051C382.139,496.287 382.69,496.665 383.129,497.147C383.481,497.533 383.76,497.984 383.949,498.47C384.09,498.835 384.181,499.22 384.217,499.609C384.229,499.739 384.229,499.87 384.235,500L384.235,560C384.22,560.328 384.228,560.411 384.17,560.735C384.063,561.342 383.822,561.924 383.469,562.429C383.28,562.698 383.216,562.753 382.994,562.994L342.994,602.994C342.73,603.235 342.671,603.306 342.374,603.507C341.928,603.808 341.426,604.024 340.9,604.138C340.506,604.224 340.1,604.253 339.698,604.224C339.161,604.186 338.633,604.044 338.15,603.809C337.787,603.633 337.45,603.405 337.151,603.133C336.753,602.772 336.426,602.334 336.191,601.85C335.897,601.245 335.75,600.572 335.766,599.899C335.776,599.496 335.844,599.095 335.966,598.711C336.13,598.198 336.392,597.719 336.735,597.304C336.82,597.2 336.915,597.105 337.006,597.006L375.765,558.246L375.765,504.235L304.235,504.235L304.235,558.268L324.937,579.342L331.88,572.399L332.178,572.128C332.286,572.047 332.389,571.962 332.501,571.886C332.946,571.585 333.449,571.37 333.974,571.255C334.5,571.141 335.046,571.128 335.577,571.217C336.24,571.329 336.874,571.6 337.412,572.003C337.843,572.325 338.21,572.73 338.49,573.189C338.7,573.534 338.86,573.908 338.965,574.297C339.069,574.687 339.117,575.091 339.108,575.494C339.089,576.302 338.834,577.098 338.381,577.767C338.18,578.064 338.109,578.123 337.869,578.388L327.905,588.352C327.808,588.44 327.715,588.533 327.614,588.617C327.311,588.868 326.973,589.077 326.613,589.235C326.011,589.499 325.35,589.62 324.695,589.587C324.039,589.553 323.394,589.365 322.823,589.042C322.594,588.912 322.378,588.762 322.178,588.592C322.077,588.508 321.985,588.414 321.889,588.325L296.979,562.968C296.736,562.695 296.665,562.635 296.463,562.329C296.162,561.871 295.951,561.355 295.845,560.817C295.774,560.458 295.783,560.364 295.765,560L295.765,500C295.771,499.87 295.771,499.739 295.783,499.609C295.807,499.349 295.855,499.092 295.927,498.841C296.106,498.213 296.431,497.63 296.87,497.147C297.31,496.665 297.861,496.287 298.47,496.051C298.835,495.91 299.22,495.819 299.609,495.783C299.739,495.771 299.87,495.771 300,495.765L380,495.765C380.13,495.771 380.26,495.777 380.391,495.783Z" style="fill:rgb(40,40,40);fill-rule:nonzero;"/>
            </g>
            <path d="M380.316,515.777C380.421,515.789 380.527,515.797 380.631,515.813C380.84,515.844 381.046,515.891 381.248,515.953C381.956,516.172 382.601,516.577 383.104,517.12C383.392,517.429 383.632,517.782 383.815,518.163C384.09,518.734 384.235,519.366 384.235,520C384.235,520.634 384.09,521.266 383.815,521.837C383.632,522.218 383.392,522.571 383.104,522.88C382.745,523.268 382.313,523.586 381.837,523.815C381.457,523.999 381.049,524.124 380.631,524.187C380.352,524.229 380.281,524.224 380,524.235L324.235,524.235L324.235,535.765L360,535.765C360.105,535.769 360.211,535.769 360.316,535.777C360.632,535.801 360.945,535.86 361.248,535.953C361.854,536.14 362.416,536.464 362.88,536.896C363.345,537.327 363.71,537.863 363.942,538.453C364.058,538.748 364.14,539.056 364.187,539.369C364.229,539.648 364.224,539.719 364.235,540L364.235,560C364.231,560.105 364.231,560.211 364.223,560.316C364.199,560.632 364.14,560.945 364.047,561.248C363.86,561.854 363.536,562.416 363.104,562.88C362.673,563.345 362.137,563.71 361.547,563.942C361.252,564.058 360.944,564.14 360.631,564.187C360.352,564.229 360.281,564.224 360,564.235L324.91,564.235C324.629,564.224 324.558,564.229 324.279,564.187C323.861,564.124 323.453,563.999 323.073,563.815C322.597,563.586 322.165,563.268 321.806,562.88C321.519,562.571 321.278,562.218 321.095,561.837C320.912,561.457 320.786,561.049 320.723,560.631C320.66,560.213 320.66,559.787 320.723,559.369C320.801,558.847 320.979,558.34 321.243,557.883C321.454,557.517 321.72,557.183 322.03,556.896C322.573,556.392 323.246,556.036 323.968,555.871C324.174,555.824 324.383,555.793 324.594,555.777C324.699,555.769 324.805,555.769 324.91,555.765L355.765,555.765L355.765,544.235L320,544.235C319.719,544.224 319.648,544.229 319.369,544.187C319.056,544.14 318.748,544.058 318.453,543.942C317.863,543.71 317.327,543.345 316.896,542.88C316.464,542.416 316.14,541.854 315.953,541.248C315.86,540.945 315.801,540.632 315.777,540.316C315.769,540.211 315.769,540.105 315.765,540L315.765,520C315.769,519.895 315.769,519.789 315.777,519.684C315.801,519.368 315.86,519.055 315.953,518.752C316.14,518.146 316.464,517.584 316.896,517.12C317.327,516.655 317.863,516.29 318.453,516.058C318.748,515.942 319.056,515.86 319.369,515.813C319.648,515.771 319.719,515.776 320,515.765L380,515.765C380.105,515.769 380.211,515.773 380.316,515.777Z" style="fill:rgb(40,40,40);fill-rule:nonzero;"/>
        </g>
    </g>
</svg>
