<?xml version="1.0" encoding="UTF-8" standalone="no"?>
<!DOCTYPE svg PUBLIC "-//W3C//DTD SVG 1.1//EN" "http://www.w3.org/Graphics/SVG/1.1/DTD/svg11.dtd">
<svg width="100%" height="100%" viewBox="0 0 718 218" version="1.1" xmlns="http://www.w3.org/2000/svg" xmlns:xlink="http://www.w3.org/1999/xlink" xml:space="preserve" style="fill-rule:evenodd;clip-rule:evenodd;stroke-linecap:round;stroke-linejoin:round;stroke-miterlimit:1.5;">
    <g transform="matrix(2.74533,0,0,2.74533,-787.063,-421.43)">
        <path d="M368.953,201.77C365.834,201.77 363.338,200.968 361.462,199.363C359.587,197.759 358.649,195.624 358.649,192.958L358.649,192.483C358.649,192.032 358.875,191.806 359.327,191.806L362.581,191.806C363.033,191.806 363.259,191.986 363.259,192.348L363.259,192.89C363.259,194.336 363.79,195.556 364.852,196.55C365.914,197.545 367.303,198.042 369.02,198.042C370.647,198.042 371.958,197.545 372.952,196.55C373.946,195.556 374.443,194.291 374.443,192.755C374.443,191.58 374.127,190.597 373.494,189.806C372.861,189.015 372.127,188.394 371.291,187.942C370.455,187.49 369.201,186.903 367.529,186.18C365.767,185.457 364.309,184.745 363.157,184.044C362.005,183.344 361.011,182.35 360.175,181.062C359.339,179.774 358.921,178.136 358.921,176.148C358.921,173.256 359.813,170.973 361.598,169.302C363.383,167.63 365.789,166.794 368.817,166.794C371.89,166.794 374.33,167.652 376.138,169.369C377.945,171.086 378.849,173.369 378.849,176.215L378.849,176.419C378.849,176.871 378.623,177.097 378.171,177.097L375.053,177.097C374.601,177.097 374.375,176.916 374.375,176.554L374.375,176.012C374.375,174.476 373.867,173.21 372.85,172.216C371.833,171.222 370.512,170.725 368.885,170.725C367.258,170.725 365.959,171.233 364.987,172.25C364.016,173.267 363.53,174.521 363.53,176.012C363.53,177.097 363.824,178.012 364.411,178.757C364.998,179.503 365.722,180.113 366.58,180.587C367.439,181.062 368.636,181.638 370.173,182.316C372.025,183.129 373.55,183.898 374.748,184.621C375.945,185.344 376.996,186.36 377.9,187.671C378.804,188.981 379.256,190.608 379.256,192.551C379.256,195.353 378.329,197.59 376.476,199.262C374.624,200.934 372.116,201.77 368.953,201.77Z" style="fill-rule:nonzero;"/>
        <path d="M402.437,185.434C402.437,185.886 402.212,186.112 401.76,186.112L386.305,186.112C386.124,186.112 386.034,186.202 386.034,186.383L386.034,191.331C386.034,193.229 386.565,194.777 387.627,195.974C388.689,197.172 390.078,197.77 391.795,197.77C393.242,197.77 394.473,197.33 395.49,196.449C396.506,195.568 397.173,194.427 397.489,193.026C397.625,192.619 397.873,192.416 398.235,192.416L401.624,192.551C401.805,192.551 401.963,192.619 402.099,192.755C402.234,192.89 402.279,193.071 402.234,193.297C401.873,195.963 400.777,198.076 398.947,199.635C397.116,201.194 394.733,201.973 391.795,201.973C388.587,201.973 386.023,201.024 384.102,199.126C382.182,197.228 381.221,194.72 381.221,191.602L381.221,176.961C381.221,173.888 382.182,171.391 384.102,169.471C386.023,167.55 388.587,166.59 391.795,166.59C395.049,166.59 397.636,167.55 399.557,169.471C401.477,171.391 402.437,173.888 402.437,176.961L402.437,185.434ZM391.795,170.793C390.078,170.793 388.689,171.391 387.627,172.589C386.565,173.787 386.034,175.357 386.034,177.3L386.034,181.841C386.034,182.022 386.124,182.113 386.305,182.113L397.422,182.113C397.602,182.113 397.693,182.022 397.693,181.841L397.693,177.3C397.693,175.357 397.15,173.787 396.066,172.589C394.981,171.391 393.558,170.793 391.795,170.793Z" style="fill-rule:nonzero;"/>
        <path d="M415.994,201.973C412.786,201.973 410.221,201.024 408.301,199.126C406.38,197.228 405.42,194.72 405.42,191.602L405.42,176.961C405.42,173.888 406.391,171.391 408.335,169.471C410.278,167.55 412.831,166.59 415.994,166.59C418.118,166.59 419.993,167.019 421.62,167.878C423.247,168.737 424.501,169.878 425.382,171.301C426.263,172.725 426.704,174.295 426.704,176.012L426.704,176.69C426.704,177.142 426.478,177.368 426.026,177.368L422.569,177.503C422.388,177.503 422.23,177.447 422.095,177.334C421.959,177.221 421.891,177.074 421.891,176.893L421.891,176.351C421.891,174.86 421.338,173.561 420.231,172.453C419.123,171.346 417.711,170.793 415.994,170.793C414.277,170.793 412.887,171.391 411.825,172.589C410.764,173.787 410.233,175.357 410.233,177.3L410.233,191.263C410.233,193.206 410.764,194.777 411.825,195.974C412.887,197.172 414.277,197.77 415.994,197.77C417.711,197.77 419.123,197.217 420.231,196.11C421.338,195.003 421.891,193.703 421.891,192.212L421.891,191.738C421.891,191.286 422.117,191.06 422.569,191.06L426.026,191.128C426.478,191.128 426.704,191.354 426.704,191.806L426.704,192.551C426.704,195.263 425.721,197.511 423.755,199.296C421.79,201.081 419.203,201.973 415.994,201.973Z" style="fill-rule:nonzero;"/>
        <path d="M445.683,167.81C445.683,167.358 445.909,167.132 446.361,167.132L449.818,167.132C450.27,167.132 450.496,167.358 450.496,167.81L450.496,200.753C450.496,201.205 450.27,201.431 449.818,201.431L446.361,201.431C445.909,201.431 445.683,201.205 445.683,200.753L445.683,198.448C445.683,198.313 445.649,198.245 445.582,198.245C445.514,198.245 445.435,198.29 445.344,198.381C443.943,200.73 441.684,201.905 438.566,201.905C435.855,201.905 433.697,201.081 432.093,199.431C430.488,197.782 429.686,195.285 429.686,191.941L429.686,167.81C429.686,167.358 429.912,167.132 430.364,167.132L433.821,167.132C434.273,167.132 434.499,167.358 434.499,167.81L434.499,190.857C434.499,193.116 434.962,194.822 435.889,195.974C436.815,197.127 438.159,197.703 439.922,197.703C441.729,197.703 443.141,197.047 444.158,195.737C445.175,194.427 445.683,192.642 445.683,190.382L445.683,167.81Z" style="fill-rule:nonzero;"/>
        <path d="M466.289,157.643C464.572,157.643 463.352,158.219 462.629,159.371C461.906,160.524 461.544,162.32 461.544,164.76L461.544,166.861C461.544,167.042 461.635,167.132 461.816,167.132L467.035,167.132C467.487,167.132 467.713,167.358 467.713,167.81L467.713,170.047C467.713,170.499 467.487,170.725 467.035,170.725L461.816,170.725C461.635,170.725 461.544,170.815 461.544,170.996L461.544,200.753C461.544,201.205 461.319,201.431 460.867,201.431L457.477,201.431C457.026,201.431 456.8,201.205 456.8,200.753L456.8,170.996C456.8,170.815 456.709,170.725 456.529,170.725L453.817,170.725C453.365,170.725 453.139,170.499 453.139,170.047L453.139,167.81C453.139,167.358 453.365,167.132 453.817,167.132L456.529,167.132C456.709,167.132 456.8,167.042 456.8,166.861L456.8,164.692C456.8,160.761 457.523,157.914 458.969,156.152C460.415,154.389 462.832,153.508 466.222,153.508L467.17,153.508C467.622,153.508 467.848,153.734 467.848,154.186L467.781,156.965C467.781,157.417 467.555,157.643 467.103,157.643L466.289,157.643Z" style="fill-rule:nonzero;"/>
        <path d="M480.592,201.973C477.338,201.973 474.751,201.024 472.83,199.126C470.91,197.228 469.95,194.72 469.95,191.602L469.95,176.961C469.95,173.888 470.921,171.391 472.864,169.471C474.807,167.55 477.383,166.59 480.592,166.59C483.8,166.59 486.387,167.55 488.353,169.471C490.318,171.391 491.301,173.888 491.301,176.961L491.301,191.602C491.301,194.72 490.33,197.228 488.387,199.126C486.444,201.024 483.845,201.973 480.592,201.973ZM480.592,197.77C482.309,197.77 483.721,197.172 484.828,195.974C485.935,194.777 486.489,193.229 486.489,191.331L486.489,177.3C486.489,175.357 485.935,173.787 484.828,172.589C483.721,171.391 482.309,170.793 480.592,170.793C478.874,170.793 477.474,171.391 476.389,172.589C475.304,173.787 474.762,175.357 474.762,177.3L474.762,191.331C474.762,193.229 475.304,194.777 476.389,195.974C477.474,197.172 478.874,197.77 480.592,197.77Z" style="fill-rule:nonzero;"/>
        <path d="M506.959,166.794C508.089,166.794 509.061,167.042 509.874,167.539C510.19,167.72 510.303,168.014 510.213,168.42L509.467,171.877C509.422,172.284 509.128,172.42 508.586,172.284C508.044,172.058 507.434,171.945 506.756,171.945C506.304,171.945 505.965,171.968 505.739,172.013C504.112,172.103 502.779,172.951 501.74,174.555C500.701,176.159 500.181,178.113 500.181,180.418L500.181,200.753C500.181,201.205 499.955,201.431 499.503,201.431L496.046,201.431C495.594,201.431 495.368,201.205 495.368,200.753L495.368,167.81C495.368,167.358 495.594,167.132 496.046,167.132L499.503,167.132C499.955,167.132 500.181,167.358 500.181,167.81L500.181,171.877C500.181,172.013 500.215,172.081 500.283,172.081C500.35,172.081 500.429,172.035 500.52,171.945C501.83,168.511 503.977,166.794 506.959,166.794Z" style="fill-rule:nonzero;"/>
        <path d="M539.292,166.658C542.003,166.658 544.105,167.652 545.596,169.64C547.087,171.629 547.833,174.385 547.833,177.91L547.833,200.753C547.833,201.205 547.607,201.431 547.155,201.431L543.766,201.431C543.314,201.431 543.088,201.205 543.088,200.753L543.088,178.317C543.088,176.012 542.602,174.193 541.63,172.86C540.659,171.527 539.382,170.861 537.801,170.861C536.083,170.861 534.728,171.516 533.734,172.826C532.74,174.137 532.242,175.922 532.242,178.181L532.242,200.753C532.242,201.205 532.016,201.431 531.565,201.431L528.108,201.431C527.656,201.431 527.43,201.205 527.43,200.753L527.43,178.317C527.43,176.012 526.944,174.193 525.972,172.86C525.001,171.527 523.747,170.861 522.211,170.861C520.493,170.861 519.126,171.516 518.11,172.826C517.093,174.137 516.585,175.922 516.585,178.181L516.585,200.753C516.585,201.205 516.359,201.431 515.907,201.431L512.518,201.431C512.066,201.431 511.84,201.205 511.84,200.753L511.84,167.81C511.84,167.358 512.066,167.132 512.518,167.132L515.907,167.132C516.359,167.132 516.585,167.358 516.585,167.81L516.585,169.912C516.585,170.002 516.618,170.058 516.686,170.081C516.754,170.104 516.833,170.07 516.923,169.979C517.782,168.85 518.799,168.014 519.974,167.471C521.149,166.929 522.391,166.658 523.702,166.658C525.419,166.658 526.91,167.076 528.175,167.912C529.441,168.748 530.412,169.934 531.09,171.471C531.135,171.561 531.203,171.606 531.293,171.606C531.384,171.606 531.452,171.538 531.497,171.403C532.31,169.776 533.417,168.578 534.818,167.81C536.219,167.042 537.71,166.658 539.292,166.658Z" style="fill-rule:nonzero;"/>
    </g>
    <g transform="matrix(2.00721,0,0,2.00721,-593.663,-998.95)">
        <g transform="matrix(1,0,0,1,0,2)">
            <path d="M300,500L300,560L340,600L380,560L380,500L300,500Z" style="fill:none;stroke:black;stroke-width:8.47px;"/>
        </g>
        <path d="M380,520L320,520L320,540L360,540L360,560L300,560" style="fill:none;stroke:black;stroke-width:8.47px;"/>
    </g>
</svg>
