<?xml version="1.0" encoding="UTF-8" standalone="no"?>
<!DOCTYPE svg PUBLIC "-//W3C//DTD SVG 1.1//EN" "http://www.w3.org/Graphics/SVG/1.1/DTD/svg11.dtd">
<svg width="100%" height="100%" viewBox="0 0 178 218" version="1.1" xmlns="http://www.w3.org/2000/svg" xmlns:xlink="http://www.w3.org/1999/xlink" xml:space="preserve" style="fill-rule:evenodd;clip-rule:evenodd;stroke-linejoin:round;stroke-miterlimit:1.41421;">
    <g transform="matrix(2.00721,0,0,2.00721,-593.663,-999.12)">
        <g transform="matrix(1,0,0,1,0,2)">
            <path d="M380.391,495.783C380.52,495.801 380.65,495.813 380.778,495.837C381.035,495.885 381.286,495.957 381.53,496.051C382.139,496.287 382.69,496.665 383.129,497.147C383.481,497.533 383.76,497.984 383.949,498.47C384.09,498.835 384.181,499.22 384.217,499.609C384.229,499.739 384.229,499.87 384.235,500L384.235,560C384.22,560.328 384.228,560.411 384.17,560.735C384.063,561.342 383.822,561.924 383.469,562.429C383.28,562.698 383.216,562.753 382.994,562.994L342.994,602.994C342.73,603.235 342.671,603.306 342.374,603.507C341.928,603.808 341.426,604.024 340.9,604.138C340.506,604.224 340.1,604.253 339.698,604.224C339.161,604.186 338.633,604.044 338.15,603.809C337.787,603.633 337.45,603.405 337.151,603.133C336.753,602.772 336.426,602.334 336.191,601.85C335.897,601.245 335.75,600.572 335.766,599.899C335.776,599.496 335.844,599.095 335.966,598.711C336.13,598.198 336.392,597.719 336.735,597.304C336.82,597.2 336.915,597.105 337.006,597.006L375.765,558.246L375.765,504.235L304.235,504.235L304.235,558.268L324.937,579.342L331.88,572.399L332.178,572.128C332.286,572.047 332.389,571.962 332.501,571.886C332.946,571.585 333.449,571.37 333.974,571.255C334.5,571.141 335.046,571.128 335.577,571.217C336.24,571.329 336.874,571.6 337.412,572.003C337.843,572.325 338.21,572.73 338.49,573.189C338.7,573.534 338.86,573.908 338.965,574.297C339.069,574.687 339.117,575.091 339.108,575.494C339.089,576.302 338.834,577.098 338.381,577.767C338.18,578.064 338.109,578.123 337.869,578.388L327.905,588.352C327.808,588.44 327.715,588.533 327.614,588.617C327.311,588.868 326.973,589.077 326.613,589.235C326.011,589.499 325.35,589.62 324.695,589.587C324.039,589.553 323.394,589.365 322.823,589.042C322.594,588.912 322.378,588.762 322.178,588.592C322.077,588.508 321.985,588.414 321.889,588.325L296.979,562.968C296.736,562.695 296.665,562.635 296.463,562.329C296.162,561.871 295.951,561.355 295.845,560.817C295.774,560.458 295.783,560.364 295.765,560L295.765,500C295.771,499.87 295.771,499.739 295.783,499.609C295.807,499.349 295.855,499.092 295.927,498.841C296.106,498.213 296.431,497.63 296.87,497.147C297.31,496.665 297.861,496.287 298.47,496.051C298.835,495.91 299.22,495.819 299.609,495.783C299.739,495.771 299.87,495.771 300,495.765L380,495.765C380.13,495.771 380.26,495.777 380.391,495.783Z" style="fill:rgb(40,40,40);fill-rule:nonzero;"/>
        </g>
        <path d="M380.316,515.777C380.421,515.789 380.527,515.797 380.631,515.813C380.84,515.844 381.046,515.891 381.248,515.953C381.956,516.172 382.601,516.577 383.104,517.12C383.392,517.429 383.632,517.782 383.815,518.163C384.09,518.734 384.235,519.366 384.235,520C384.235,520.634 384.09,521.266 383.815,521.837C383.632,522.218 383.392,522.571 383.104,522.88C382.745,523.268 382.313,523.586 381.837,523.815C381.457,523.999 381.049,524.124 380.631,524.187C380.352,524.229 380.281,524.224 380,524.235L324.235,524.235L324.235,535.765L360,535.765C360.105,535.769 360.211,535.769 360.316,535.777C360.632,535.801 360.945,535.86 361.248,535.953C361.854,536.14 362.416,536.464 362.88,536.896C363.345,537.327 363.71,537.863 363.942,538.453C364.058,538.748 364.14,539.056 364.187,539.369C364.229,539.648 364.224,539.719 364.235,540L364.235,560C364.231,560.105 364.231,560.211 364.223,560.316C364.199,560.632 364.14,560.945 364.047,561.248C363.86,561.854 363.536,562.416 363.104,562.88C362.673,563.345 362.137,563.71 361.547,563.942C361.252,564.058 360.944,564.14 360.631,564.187C360.352,564.229 360.281,564.224 360,564.235L324.91,564.235C324.629,564.224 324.558,564.229 324.279,564.187C323.861,564.124 323.453,563.999 323.073,563.815C322.597,563.586 322.165,563.268 321.806,562.88C321.519,562.571 321.278,562.218 321.095,561.837C320.912,561.457 320.786,561.049 320.723,560.631C320.66,560.213 320.66,559.787 320.723,559.369C320.801,558.847 320.979,558.34 321.243,557.883C321.454,557.517 321.72,557.183 322.03,556.896C322.573,556.392 323.246,556.036 323.968,555.871C324.174,555.824 324.383,555.793 324.594,555.777C324.699,555.769 324.805,555.769 324.91,555.765L355.765,555.765L355.765,544.235L320,544.235C319.719,544.224 319.648,544.229 319.369,544.187C319.056,544.14 318.748,544.058 318.453,543.942C317.863,543.71 317.327,543.345 316.896,542.88C316.464,542.416 316.14,541.854 315.953,541.248C315.86,540.945 315.801,540.632 315.777,540.316C315.769,540.211 315.769,540.105 315.765,540L315.765,520C315.769,519.895 315.769,519.789 315.777,519.684C315.801,519.368 315.86,519.055 315.953,518.752C316.14,518.146 316.464,517.584 316.896,517.12C317.327,516.655 317.863,516.29 318.453,516.058C318.748,515.942 319.056,515.86 319.369,515.813C319.648,515.771 319.719,515.776 320,515.765L380,515.765C380.105,515.769 380.211,515.773 380.316,515.777Z" style="fill:rgb(40,40,40);fill-rule:nonzero;"/>
    </g>
</svg>
