<?xml version="1.0" encoding="UTF-8" standalone="no"?>
<!DOCTYPE svg PUBLIC "-//W3C//DTD SVG 1.1//EN" "http://www.w3.org/Graphics/SVG/1.1/DTD/svg11.dtd">
<svg width="100%" height="100%" viewBox="0 0 3480 630" version="1.1" xmlns="http://www.w3.org/2000/svg" xmlns:xlink="http://www.w3.org/1999/xlink" xml:space="preserve" style="fill-rule:evenodd;clip-rule:evenodd;stroke-linejoin:round;stroke-miterlimit:1.41421;">
    <g id="layer101">
        <path d="M2400,630C2332,635 2234,600 2233,600C2220,599 2200,529 2200,486C2200,432 2200,432 2155,406C2121,386 2110,373 2110,355C2110,332 2114,330 2155,330C2188,330 2200,326 2200,315C2200,302 2225,300 2366,300C2495,300 2530,297 2524,288C2518,278 2520,278 2531,288C2538,294 2552,300 2562,300C2572,300 2580,307 2580,315C2580,325 2591,330 2615,330C2645,330 2650,333 2650,354C2650,371 2639,385 2615,400C2581,421 2580,424 2580,484C2580,587 2541,621 2400,630Z" style="fill:white;fill-rule:nonzero;"/>
        <path d="M-8.849,620L0,180L113,180C300,181 340,200 340,289C340,314 336,341 331,349C324,359 330,371 351,391C378,416 380,423 380,492C380,559 377,569 354,591C329,614 322,615 164,618L158.136,618.143L-8.849,620ZM244,498C263,467 240,445 189,445C151,445 145,448 142,468C136,511 146,521 191,518C218,516 237,509 244,498ZM215,320C215,298 210,295 178,292C142,289 140,290 140,320C140,350 142,351 178,348C210,345 215,342 215,320Z" style="fill:white;fill-rule:nonzero;"/>
        <path d="M450,620L450,180L780,180L780,300L685,300C597,300 590,301 590,320C590,338 597,340 665,340L740,340L740,450L665,450C592,450 590,451 590,475C590,500 590,500 685,500L780,500L780,620L450,620Z" style="fill:white;fill-rule:nonzero;"/>
        <path d="M940,620L940,300L830,300L830.258,180L1200,180L1201,300L1090.85,300L1090.03,620L940,620Z" style="fill:white;fill-rule:nonzero;"/>
        <path d="M1231,513C1231,411 1234,399 1274,295L1316,185L1522,185L1566,304C1607,415 1610,431 1610,522L1609.36,620L1470.15,620L1470,510L1360,510L1360,620L1229.98,620L1231,513ZM1456,383C1453,373 1448,353 1444,338C1440,317 1432,310 1415,310C1398,310 1390,317 1386,338C1382,353 1377,373 1374,383C1369,397 1376,400 1415,400C1454,400 1461,397 1456,383Z" style="fill:white;fill-rule:nonzero;"/>
        <path d="M1891,607C1829,585 1815,554 1812,422C1806,213 1830,186 2020,185L2140,185L2140,300L1960,300L1960,500L2140,500L2140,620L2033,619C1973,619 1910,614 1891,607Z" style="fill:white;fill-rule:nonzero;"/>
        <path d="M2660,620L2660,185L2800,185C2882,187 2954,191 2966,198C3006,220 3022,313 2996,372C2991,383 2994,390 3008,394C3038,404 3050,444 3050,535L3050,620L2911,620L2908,553L2905,485L2853,482L2800,479L2800,620L2660,620ZM2865,330C2865,298 2862,295 2833,292C2801,289 2800,289 2800,330C2800,371 2801,371 2833,368C2862,365 2865,362 2865,330Z" style="fill:white;fill-rule:nonzero;"/>
        <path d="M3120,620L3120,185L3260,185C3381,189 3404,189 3428,207C3496,257 3497,422 3430,472C3413,484 3379,493 3332,497L3260,503L3260,620L3120,620ZM3338,343L3341,300L3301,300L3260,300L3260,391L3298,388C3334,385 3335,384 3338,343Z" style="fill:white;fill-rule:nonzero;"/>
        <path d="M2340,280C2340,273 2343,270 2347,273C2350,277 2350,283 2347,287C2343,290 2340,287 2340,280Z" style="fill:white;fill-rule:nonzero;"/>
        <path d="M2383,283C2387,280 2393,280 2397,283C2400,287 2397,290 2390,290C2383,290 2380,287 2383,283Z" style="fill:white;fill-rule:nonzero;"/>
        <path d="M2445,289C2445,289 2356,241 2352,225C2350,213 2353,199 2359,196C2388,178 2368,150 2296,111C2256,88 2216,70 2208,70C2200,70 2159,40 2169,22C2184,-5 2190,-5 2218,21C2248,48 2375,120 2394,120C2403,120 2416,107 2425,90C2444,53 2451,53 2507,85C2554,113 2558,124 2534,158C2526,170 2445,289 2445,289Z" style="fill:white;fill-rule:nonzero;"/>
        <path d="M2485,270C2488,265 2493,260 2496,260C2498,260 2500,265 2500,270C2500,276 2495,280 2489,280C2484,280 2482,276 2485,270Z" style="fill:white;fill-rule:nonzero;"/>
        <path d="M2535,250C2538,245 2546,240 2551,240C2557,240 2558,245 2555,250C2552,256 2544,260 2539,260C2533,260 2532,256 2535,250Z" style="fill:white;fill-rule:nonzero;"/>
    </g>
</svg>
