<?xml version="1.0" encoding="UTF-8" standalone="no"?>
<!DOCTYPE svg PUBLIC "-//W3C//DTD SVG 1.1//EN" "http://www.w3.org/Graphics/SVG/1.1/DTD/svg11.dtd">
<svg width="100%" height="100%" viewBox="0 0 720 180" version="1.1" xmlns="http://www.w3.org/2000/svg" xmlns:xlink="http://www.w3.org/1999/xlink" xml:space="preserve" style="fill-rule:evenodd;clip-rule:evenodd;stroke-linejoin:round;stroke-miterlimit:1.41421;">
    <g transform="matrix(1,0,0,1,-440,-200)">
        <g transform="matrix(3.21492,0,0,3.21492,-514.288,-309.859)">
            <path d="M381.425,176.961C381.47,178.633 381.492,181.141 381.492,184.485C381.492,187.693 381.47,190.134 381.425,191.806C381.334,194.833 380.464,197.285 378.815,199.16C377.166,201.035 374.985,201.973 372.274,201.973C369.382,201.973 367.145,200.889 365.563,198.719C365.473,198.629 365.394,198.606 365.326,198.652C365.258,198.697 365.224,198.765 365.224,198.855L365.224,213.903C365.224,214.355 364.998,214.581 364.547,214.581L361.09,214.581C360.638,214.581 360.412,214.355 360.412,213.903L360.412,167.81C360.412,167.358 360.638,167.132 361.09,167.132L364.547,167.132C364.998,167.132 365.224,167.358 365.224,167.81L365.224,169.776C365.224,169.866 365.258,169.934 365.326,169.979C365.394,170.025 365.473,170.002 365.563,169.912C366.332,168.827 367.292,168.002 368.444,167.437C369.596,166.873 370.873,166.59 372.274,166.59C374.94,166.59 377.098,167.55 378.747,169.471C380.397,171.391 381.289,173.888 381.425,176.961ZM370.85,197.77C372.613,197.77 374.036,197.149 375.121,195.906C376.205,194.664 376.725,193.026 376.68,190.992L376.68,188.62L376.68,184.282L376.68,177.571C376.725,175.583 376.205,173.956 375.121,172.691C374.036,171.425 372.613,170.793 370.85,170.793C369.224,170.793 367.879,171.414 366.817,172.657C365.755,173.899 365.224,175.538 365.224,177.571L365.224,190.992C365.224,193.026 365.755,194.664 366.817,195.906C367.879,197.149 369.224,197.77 370.85,197.77Z" style="fill:rgb(40,40,40);fill-rule:nonzero;"/>
            <path d="M395.591,166.59C398.755,166.59 401.274,167.618 403.149,169.674C405.025,171.73 405.962,174.476 405.962,177.91L405.962,200.753C405.962,201.205 405.736,201.431 405.284,201.431L401.827,201.431C401.376,201.431 401.15,201.205 401.15,200.753L401.15,198.787C401.15,198.697 401.116,198.64 401.048,198.618C400.98,198.595 400.901,198.629 400.811,198.719C399.139,200.889 396.653,201.973 393.355,201.973C390.869,201.973 388.711,201.261 386.881,199.838C385.051,198.414 384.136,195.895 384.136,192.28C384.136,188.439 385.243,185.626 387.457,183.841C389.672,182.056 392.586,181.164 396.201,181.164L400.878,181.164C401.059,181.164 401.15,181.073 401.15,180.892L401.15,178.249C401.15,175.989 400.641,174.182 399.624,172.826C398.608,171.471 397.218,170.793 395.456,170.793C394.1,170.793 392.925,171.245 391.931,172.148C390.937,173.052 390.372,174.205 390.236,175.605C390.191,176.057 389.943,176.283 389.491,176.283L385.763,176.215C385.537,176.215 385.367,176.148 385.254,176.012C385.141,175.876 385.108,175.718 385.153,175.538C385.379,172.871 386.463,170.714 388.406,169.064C390.349,167.415 392.744,166.59 395.591,166.59ZM394.371,197.77C396.224,197.77 397.817,197.172 399.15,195.974C400.483,194.777 401.15,193.116 401.15,190.992L401.15,185.298C401.15,185.118 401.059,185.027 400.878,185.027L396.134,185.027C393.965,185.027 392.247,185.603 390.982,186.756C389.717,187.908 389.084,189.614 389.084,191.873C389.084,193.862 389.57,195.342 390.541,196.313C391.513,197.285 392.79,197.77 394.371,197.77Z" style="fill:rgb(40,40,40);fill-rule:nonzero;"/>
            <path d="M422.298,166.658C425.054,166.658 427.19,167.607 428.703,169.505C430.217,171.403 430.974,174.046 430.974,177.436L430.974,200.753C430.974,201.205 430.748,201.431 430.296,201.431L426.839,201.431C426.388,201.431 426.162,201.205 426.162,200.753L426.162,177.842C426.162,175.628 425.687,173.911 424.738,172.691C423.789,171.471 422.456,170.861 420.739,170.861C418.931,170.861 417.508,171.516 416.469,172.826C415.429,174.137 414.91,175.922 414.91,178.181L414.91,200.753C414.91,201.205 414.684,201.431 414.232,201.431L410.775,201.431C410.323,201.431 410.097,201.205 410.097,200.753L410.097,167.81C410.097,167.358 410.323,167.132 410.775,167.132L414.232,167.132C414.684,167.132 414.91,167.358 414.91,167.81L414.91,170.047C414.91,170.138 414.955,170.194 415.045,170.217C415.136,170.239 415.203,170.205 415.249,170.115C416.92,167.81 419.27,166.658 422.298,166.658Z" style="fill:rgb(40,40,40);fill-rule:nonzero;"/>
            <path d="M445.344,201.973C442.091,201.973 439.504,201.024 437.583,199.126C435.663,197.228 434.702,194.72 434.702,191.602L434.702,176.961C434.702,173.888 435.674,171.391 437.617,169.471C439.56,167.55 442.136,166.59 445.344,166.59C448.553,166.59 451.14,167.55 453.105,169.471C455.071,171.391 456.054,173.888 456.054,176.961L456.054,191.602C456.054,194.72 455.082,197.228 453.139,199.126C451.196,201.024 448.598,201.973 445.344,201.973ZM445.344,197.77C447.061,197.77 448.474,197.172 449.581,195.974C450.688,194.777 451.241,193.229 451.241,191.331L451.241,177.3C451.241,175.357 450.688,173.787 449.581,172.589C448.474,171.391 447.061,170.793 445.344,170.793C443.627,170.793 442.226,171.391 441.142,172.589C440.057,173.787 439.515,175.357 439.515,177.3L439.515,191.331C439.515,193.229 440.057,194.777 441.142,195.974C442.226,197.172 443.627,197.77 445.344,197.77Z" style="fill:rgb(40,40,40);fill-rule:nonzero;"/>
            <path d="M481.541,176.961C481.586,178.633 481.608,181.141 481.608,184.485C481.608,187.693 481.586,190.134 481.541,191.806C481.45,194.833 480.58,197.285 478.931,199.16C477.281,201.035 475.101,201.973 472.39,201.973C469.498,201.973 467.261,200.889 465.679,198.719C465.589,198.629 465.51,198.606 465.442,198.652C465.374,198.697 465.34,198.765 465.34,198.855L465.34,213.903C465.34,214.355 465.114,214.581 464.663,214.581L461.206,214.581C460.754,214.581 460.528,214.355 460.528,213.903L460.528,167.81C460.528,167.358 460.754,167.132 461.206,167.132L464.663,167.132C465.114,167.132 465.34,167.358 465.34,167.81L465.34,169.776C465.34,169.866 465.374,169.934 465.442,169.979C465.51,170.025 465.589,170.002 465.679,169.912C466.447,168.827 467.408,168.002 468.56,167.437C469.712,166.873 470.989,166.59 472.39,166.59C475.056,166.59 477.214,167.55 478.863,169.471C480.513,171.391 481.405,173.888 481.541,176.961ZM470.966,197.77C472.729,197.77 474.152,197.149 475.237,195.906C476.321,194.664 476.841,193.026 476.796,190.992L476.796,188.62L476.796,184.282L476.796,177.571C476.841,175.583 476.321,173.956 475.237,172.691C474.152,171.425 472.729,170.793 470.966,170.793C469.34,170.793 467.995,171.414 466.933,172.657C465.871,173.899 465.34,175.538 465.34,177.571L465.34,190.992C465.34,193.026 465.871,194.664 466.933,195.906C467.995,197.149 469.34,197.77 470.966,197.77Z" style="fill:rgb(40,40,40);fill-rule:nonzero;"/>
            <path d="M497.809,170.047C497.809,170.499 497.583,170.725 497.131,170.725L491.979,170.725C491.798,170.725 491.708,170.815 491.708,170.996L491.708,191.738C491.708,193.816 492.07,195.251 492.793,196.042C493.516,196.833 494.623,197.206 496.114,197.16L496.792,197.16C497.244,197.16 497.47,197.386 497.47,197.838L497.47,200.753C497.47,201.205 497.244,201.431 496.792,201.431L495.097,201.431C492.431,201.431 490.409,200.855 489.031,199.702C487.652,198.55 486.963,196.37 486.963,193.161L486.963,170.996C486.963,170.815 486.873,170.725 486.692,170.725L484.049,170.725C483.597,170.725 483.371,170.499 483.371,170.047L483.371,167.81C483.371,167.358 483.597,167.132 484.049,167.132L486.692,167.132C486.873,167.132 486.963,167.042 486.963,166.861L486.963,159.27C486.963,158.818 487.189,158.592 487.641,158.592L491.03,158.592C491.482,158.592 491.708,158.818 491.708,159.27L491.708,166.861C491.708,167.042 491.798,167.132 491.979,167.132L497.131,167.132C497.583,167.132 497.809,167.358 497.809,167.81L497.809,170.047Z" style="fill:rgb(40,40,40);fill-rule:nonzero;"/>
            <path d="M510.416,166.59C513.579,166.59 516.099,167.618 517.974,169.674C519.849,171.73 520.787,174.476 520.787,177.91L520.787,200.753C520.787,201.205 520.561,201.431 520.109,201.431L516.652,201.431C516.2,201.431 515.974,201.205 515.974,200.753L515.974,198.787C515.974,198.697 515.941,198.64 515.873,198.618C515.805,198.595 515.726,198.629 515.636,198.719C513.964,200.889 511.478,201.973 508.179,201.973C505.694,201.973 503.536,201.261 501.706,199.838C499.876,198.414 498.961,195.895 498.961,192.28C498.961,188.439 500.068,185.626 502.282,183.841C504.496,182.056 507.411,181.164 511.026,181.164L515.703,181.164C515.884,181.164 515.974,181.073 515.974,180.892L515.974,178.249C515.974,175.989 515.466,174.182 514.449,172.826C513.433,171.471 512.043,170.793 510.281,170.793C508.925,170.793 507.75,171.245 506.756,172.148C505.762,173.052 505.197,174.205 505.061,175.605C505.016,176.057 504.768,176.283 504.316,176.283L500.588,176.215C500.362,176.215 500.192,176.148 500.079,176.012C499.966,175.876 499.932,175.718 499.978,175.538C500.204,172.871 501.288,170.714 503.231,169.064C505.174,167.415 507.569,166.59 510.416,166.59ZM509.196,197.77C511.049,197.77 512.642,197.172 513.975,195.974C515.308,194.777 515.974,193.116 515.974,190.992L515.974,185.298C515.974,185.118 515.884,185.027 515.703,185.027L510.958,185.027C508.789,185.027 507.072,185.603 505.807,186.756C504.542,187.908 503.909,189.614 503.909,191.873C503.909,193.862 504.395,195.342 505.366,196.313C506.338,197.285 507.615,197.77 509.196,197.77Z" style="fill:rgb(40,40,40);fill-rule:nonzero;"/>
        </g>
        <g transform="matrix(1,0,0,1,280,40)">
            <path d="M340,332C340,336.418 336.418,340 332,340C313.268,340 266.732,340 248,340C243.582,340 240,336.418 240,332C240,326.431 240,320 240,320L240,300C240,300 240,293.569 240,288C240,283.582 243.582,280 248,280C259.483,280 280.517,280 292,280C296.418,280 300,283.582 300,288C300,289.317 300,290.683 300,292C300,296.418 296.418,300 292,300C280.327,300 260,300 260,300L260,320L320,320L320,180L180,180L180,320L200,320L200,300C200,300 200,231.716 200,208C200,203.582 203.582,200 208,200C226.732,200 273.268,200 292,200C296.418,200 300,203.582 300,208C300,219.483 300,240.517 300,252C300,256.418 296.418,260 292,260C271.739,260 220,260 220,260L220,332C220,336.418 216.418,340 212,340C200.517,340 179.483,340 168,340C163.582,340 160,336.418 160,332C160,302.197 160,197.803 160,168C160,163.582 163.582,160 168,160C197.803,160 302.197,160 332,160C336.418,160 340,163.582 340,168C340,197.803 340,302.197 340,332ZM280,220L220,220L220,240L280,240L280,220Z" style="fill:rgb(40,40,40);"/>
        </g>
    </g>
</svg>
